<svg width="196" height="146" viewBox="0 0 196 146" fill="none" xmlns="http://www.w3.org/2000/svg">
<path d="M147.513 142.007C137.269 142.007 127.026 142.007 116.773 142.007H106.446V115.327H88.6823V142.036H83.3447C71.4226 142.036 59.5005 142.036 47.5783 142.036C44.9646 142.036 42.8094 142.197 44.3134 145.872H150.87C152.053 141.941 149.843 141.998 147.513 142.007ZM97.3028 137.936C95.7887 137.74 94.394 136.988 93.3747 135.819C92.3555 134.649 91.7801 133.139 91.7544 131.568C91.947 128.507 95.1293 125.474 97.9631 125.984C101.118 126.56 103.191 128.544 103.273 132.021C103.346 135.016 100.109 138.096 97.3028 137.936Z" fill="black"/>
<path d="M0 0.543882V115.261C1.77915 115.365 3.12715 115.525 4.4661 115.525C66.6752 115.525 128.881 115.553 191.084 115.61C194.863 115.61 196.009 114.542 196 110.584C195.859 75.6075 195.859 40.6347 196 5.66481C196 1.30932 194.863 0.118782 190.644 0.128229C128.741 0.2605 66.8403 0.295244 4.943 0.232258C3.43898 0.232258 1.8892 0.411612 0 0.543882ZM191.552 4.75785V111.094H3.9892V4.75785H191.552Z" fill="black"/>
</svg>
