<svg width="112" height="228" viewBox="0 0 112 228" fill="none" xmlns="http://www.w3.org/2000/svg">
<path d="M3.46658 227.158C1.98205 223.579 4.10932 223.414 6.68914 223.423C18.4567 223.423 30.2243 223.423 41.9919 223.423H47.2603V197.668H1.09507C0.96834 195.644 0.778159 194.035 0.778159 192.425C0.778159 130.343 0.745092 68.2573 0.678711 6.16898C0.678711 1.93778 1.81914 0.778937 5.98306 0.797334C39.4936 0.962903 73.0041 0.962903 106.515 0.797334C110.298 0.797334 111.33 1.93779 111.321 5.72748C111.225 68.1163 111.197 130.508 111.24 192.903C111.24 194.255 111.095 195.598 110.986 197.383H64.821V223.386H75.0227C85.1338 223.386 95.2448 223.386 105.356 223.386C107.655 223.386 109.882 223.322 108.66 227.112L3.46658 227.158ZM106.994 193.464V5.3044H5.1141V193.428L106.994 193.464ZM55.7872 219.468C58.5752 219.615 61.7524 216.626 61.68 213.71C61.5986 210.325 59.5528 208.393 56.4479 207.832C53.6418 207.335 50.5008 210.288 50.3107 213.268C50.336 214.799 50.904 216.268 51.91 217.407C52.9161 218.546 54.2928 219.278 55.7872 219.468Z" fill="black"/>
</svg>
