<svg width="24" height="49" viewBox="0 0 24 49" fill="none" xmlns="http://www.w3.org/2000/svg">
<path d="M22.9696 48.1283C23.2796 47.3812 22.8354 47.3466 22.2967 47.3485C19.8395 47.3485 17.3824 47.3485 14.9252 47.3485H13.8251V41.9706H23.4648C23.4913 41.5481 23.531 41.212 23.531 40.8758C23.531 27.9125 23.5379 14.9486 23.5518 1.98397C23.5518 1.10045 23.3136 0.858478 22.4442 0.862319C15.4469 0.896891 8.44958 0.896891 1.45229 0.862319C0.662214 0.862319 0.446728 1.10046 0.448618 1.89178C0.468781 14.9191 0.474466 27.9471 0.465647 40.9757C0.465647 41.2581 0.495893 41.5385 0.518576 41.9111H10.1583V47.3409H8.02809C5.9168 47.3409 3.80552 47.3409 1.69423 47.3409C1.21414 47.3409 0.749186 47.3274 1.00435 48.1187L22.9696 48.1283ZM1.35211 41.0929V1.80343H22.6256V41.0852L1.35211 41.0929ZM12.0446 46.5227C11.4625 46.5534 10.799 45.9292 10.8141 45.3203C10.8312 44.6135 11.2583 44.2101 11.9067 44.093C12.4926 43.9893 13.1485 44.6058 13.1882 45.2281C13.1829 45.5476 13.0643 45.8545 12.8542 46.0923C12.6441 46.3301 12.3567 46.4829 12.0446 46.5227Z" fill="#CC1015"/>
</svg>
