<svg width="79" height="58" viewBox="0 0 79 58" fill="none" xmlns="http://www.w3.org/2000/svg">
<path d="M59.3708 56.4622C55.2941 56.4622 51.2175 56.4622 47.1372 56.4622H43.0277V45.8443H35.9584V56.4735H33.8343C29.0898 56.4735 24.3453 56.4735 19.6007 56.4735C18.5606 56.4735 17.7029 56.5374 18.3014 58H60.7066C61.1774 56.4359 60.2978 56.4584 59.3708 56.4622ZM39.389 54.8417C38.7865 54.764 38.2315 54.4648 37.8258 53.9992C37.4202 53.5337 37.1912 52.9331 37.181 52.3076C37.2576 51.0894 38.5241 49.8824 39.6518 50.0854C40.9073 50.3148 41.7321 51.1044 41.765 52.488C41.7942 53.6799 40.5058 54.9057 39.389 54.8417Z" fill="#CC1015"/>
<path d="M0.666504 0.165435V45.818C1.37453 45.8594 1.91098 45.9233 2.44383 45.9233C27.2005 45.9233 51.956 45.9345 76.7102 45.9571C78.2139 45.9571 78.6701 45.5322 78.6665 43.9568C78.6105 30.0377 78.6105 16.1199 78.6665 2.20335C78.6665 0.470048 78.2139 -0.00373773 76.5351 2.21547e-05C51.9 0.0526605 27.2662 0.0664872 2.63362 0.0414213C2.03508 0.0414213 1.41833 0.112797 0.666504 0.165435ZM76.8964 1.84242V44.1598H2.25404V1.84242H76.8964Z" fill="#CC1015"/>
</svg>
