<svg width="79" height="58" viewBox="0 0 79 58" fill="none" xmlns="http://www.w3.org/2000/svg">
<path d="M59.0378 56.4622C54.9611 56.4622 50.8845 56.4622 46.8042 56.4622H42.6947V45.8443H35.6254V56.4735H33.5013C28.7568 56.4735 24.0123 56.4735 19.2677 56.4735C18.2276 56.4735 17.3699 56.5374 17.9684 58H60.3736C60.8444 56.4359 59.9648 56.4584 59.0378 56.4622ZM39.056 54.8417C38.4535 54.764 37.8984 54.4648 37.4928 53.9992C37.0872 53.5337 36.8582 52.9331 36.848 52.3076C36.9246 51.0894 38.1911 49.8824 39.3188 50.0854C40.5743 50.3148 41.3991 51.1044 41.4319 52.488C41.4611 53.6799 40.1728 54.9057 39.056 54.8417Z" fill="black"/>
<path d="M0.333496 0.165435V45.818C1.04153 45.8594 1.57798 45.9233 2.11082 45.9233C26.8675 45.9233 51.623 45.9345 76.3772 45.9571C77.8809 45.9571 78.3371 45.5322 78.3335 43.9568C78.2775 30.0377 78.2775 16.1199 78.3335 2.20335C78.3335 0.470048 77.8809 -0.00373773 76.2021 2.21547e-05C51.567 0.0526605 26.9332 0.0664872 2.30061 0.0414213C1.70207 0.0414213 1.08532 0.112797 0.333496 0.165435ZM76.5634 1.84242V44.1598H1.92103V1.84242H76.5634Z" fill="black"/>
</svg>
