<svg width="126" height="256" viewBox="0 0 126 256" fill="none" xmlns="http://www.w3.org/2000/svg">
<path d="M3.80822 255.415C2.13553 251.384 4.53244 251.197 7.43925 251.207C20.6984 251.207 33.9576 251.207 47.2167 251.207H53.1528V222.188H1.13612C0.993332 219.908 0.779046 218.094 0.779046 216.28C0.779046 146.329 0.741787 76.3742 0.666992 6.41604C0.666992 1.64852 1.95197 0.342795 6.64367 0.363523C44.4017 0.550078 82.1597 0.550078 119.918 0.363523C124.181 0.363523 125.344 1.64854 125.334 5.91858C125.225 76.2153 125.194 146.515 125.242 216.819C125.242 218.343 125.079 219.856 124.956 221.867H72.9395V251.166H84.4341C95.8268 251.166 107.22 251.166 118.612 251.166C121.203 251.166 123.712 251.093 122.335 255.363L3.80822 255.415ZM120.458 217.451V5.44187H5.66457V217.41L120.458 217.451ZM62.7605 246.751C65.9019 246.917 69.4819 243.548 69.4003 240.263C69.3085 236.449 67.0034 234.272 63.5051 233.64C60.3433 233.08 56.8041 236.408 56.5899 239.766C56.6185 241.49 57.2584 243.145 58.3919 244.429C59.5255 245.712 61.0767 246.537 62.7605 246.751Z" fill="url(#paint0_linear_9068_48109)" fill-opacity="0.9"/>
<defs>
<linearGradient id="paint0_linear_9068_48109" x1="104.009" y1="-61.8253" x2="-56.8551" y2="5.06399" gradientUnits="userSpaceOnUse">
<stop stop-color="#F58F76"/>
<stop offset="1" stop-color="#C22520"/>
</linearGradient>
</defs>
</svg>
