<svg width="236" height="180" viewBox="0 0 236 180" fill="none" xmlns="http://www.w3.org/2000/svg">
<g filter="url(#filter0_d_9080_10267)">
<path d="M173.376 164.593C161.919 164.593 150.462 164.593 138.995 164.593H127.446V134.753H107.579V164.625H101.609C88.2757 164.625 74.9419 164.625 61.6082 164.625C58.685 164.625 56.2746 164.804 57.9567 168.915H177.13C178.453 164.519 175.981 164.582 173.376 164.593ZM117.22 160.039C115.527 159.82 113.967 158.98 112.827 157.671C111.687 156.363 111.044 154.675 111.015 152.917C111.23 149.494 114.789 146.102 117.959 146.672C121.487 147.317 123.805 149.536 123.897 153.424C123.979 156.774 120.359 160.219 117.22 160.039Z" fill="url(#paint0_linear_9080_10267)" fill-opacity="0.9" shape-rendering="crispEdges"/>
<path d="M8.39648 6.37972V134.679C10.3863 134.795 11.8939 134.975 13.3914 134.975C82.9662 134.975 152.538 135.007 222.106 135.07C226.331 135.07 227.614 133.876 227.603 129.449C227.446 90.3311 227.446 51.2174 227.603 12.107C227.603 7.23579 226.331 5.90429 221.613 5.91486C152.38 6.06279 83.1509 6.10165 13.9248 6.0312C12.2426 6.0312 10.5094 6.23179 8.39648 6.37972ZM222.629 11.0926V130.019H12.858V11.0926H222.629Z" fill="url(#paint1_linear_9080_10267)" fill-opacity="0.9" shape-rendering="crispEdges"/>
</g>
<defs>
<filter id="filter0_d_9080_10267" x="0.396484" y="0.914795" width="235.207" height="179" filterUnits="userSpaceOnUse" color-interpolation-filters="sRGB">
<feFlood flood-opacity="0" result="BackgroundImageFix"/>
<feColorMatrix in="SourceAlpha" type="matrix" values="0 0 0 0 0 0 0 0 0 0 0 0 0 0 0 0 0 0 127 0" result="hardAlpha"/>
<feOffset dy="3"/>
<feGaussianBlur stdDeviation="4"/>
<feComposite in2="hardAlpha" operator="out"/>
<feColorMatrix type="matrix" values="0 0 0 0 0.133333 0 0 0 0 0.188235 0 0 0 0 0.243137 0 0 0 0.1 0"/>
<feBlend mode="normal" in2="BackgroundImageFix" result="effect1_dropShadow_9080_10267"/>
<feBlend mode="normal" in="SourceGraphic" in2="effect1_dropShadow_9080_10267" result="shape"/>
</filter>
<linearGradient id="paint0_linear_9080_10267" x1="190.107" y1="-33.829" x2="46.4158" y2="130.56" gradientUnits="userSpaceOnUse">
<stop stop-color="#F58F76"/>
<stop offset="1" stop-color="#C22520"/>
</linearGradient>
<linearGradient id="paint1_linear_9080_10267" x1="190.107" y1="-33.829" x2="46.4158" y2="130.56" gradientUnits="userSpaceOnUse">
<stop stop-color="#F58F76"/>
<stop offset="1" stop-color="#C22520"/>
</linearGradient>
</defs>
</svg>
